<svg xmlns="http://www.w3.org/2000/svg" xmlns:xlink="http://www.w3.org/1999/xlink" viewBox="0 0 1353.071 1247.006"><defs><linearGradient id="a" x1="762.146" x2="930.345" y1="1179.743" y2="1179.743" gradientUnits="userSpaceOnUse"><stop offset="0" stop-color="#c2c8e7"/><stop offset="1" stop-color="#fff"/></linearGradient><linearGradient id="n" x1="251.563" x2="419.763" y1="884.958" y2="884.958" xlink:href="#a"/><linearGradient id="o" x1="1095.657" x2="1263.857" y1="987.192" y2="987.192" xlink:href="#a"/><linearGradient id="p" x1="258.11" x2="379.166" y1="522.06" y2="522.06" gradientUnits="userSpaceOnUse"><stop offset="0" stop-color="#c4cae8"/><stop offset=".238" stop-color="#c9cfea"/><stop offset=".534" stop-color="#d9ddf0"/><stop offset=".86" stop-color="#f2f3fa"/><stop offset="1" stop-color="#fff"/></linearGradient><linearGradient id="q" x1="296.114" x2="365.596" y1="513.985" y2="513.985" gradientUnits="userSpaceOnUse"><stop offset="0" stop-color="#d1d7f3"/><stop offset="1" stop-color="#fff"/></linearGradient><linearGradient id="r" x1="244.541" x2="365.596" y1="535.615" y2="535.615" gradientUnits="userSpaceOnUse"><stop offset="0" stop-color="#fcba06"/><stop offset=".608" stop-color="#e99e02"/><stop offset="1" stop-color="#e19100"/></linearGradient><linearGradient id="b" x1="314.28" x2="302.016" y1="517.419" y2="496.178" gradientUnits="userSpaceOnUse"><stop offset=".301" stop-color="#bbc0e6"/><stop offset=".544" stop-color="#ccd0ec"/><stop offset="1" stop-color="#f6f6fb"/></linearGradient><linearGradient id="s" x1="263.489" x2="251.225" y1="336.902" y2="315.659" xlink:href="#b"/><linearGradient id="t" x1="367.093" x2="354.829" y1="298.149" y2="276.907" xlink:href="#b"/><linearGradient id="u" x1="355.249" x2="418.95" y1="313.089" y2="282.94" gradientUnits="userSpaceOnUse"><stop offset="0" stop-color="#362e94"/><stop offset="1" stop-color="#807dfb"/></linearGradient><linearGradient id="v" x1="343.133" x2="379.477" y1="244.652" y2="244.652" gradientUnits="userSpaceOnUse"><stop offset="0" stop-color="#5652cc"/><stop offset=".359" stop-color="#4c47bb"/><stop offset="1" stop-color="#362e93"/></linearGradient><linearGradient id="w" x1="845.316" x2="970.776" y1="793.389" y2="793.389" gradientUnits="userSpaceOnUse"><stop offset="0" stop-color="#c6cbe7"/><stop offset=".446" stop-color="#e1e4f2"/><stop offset="1" stop-color="#fff"/></linearGradient><linearGradient id="x" x1="786.53" x2="895.819" y1="786.169" y2="786.169" gradientUnits="userSpaceOnUse"><stop offset="0" stop-color="#5555c6"/><stop offset=".414" stop-color="#3a399a"/><stop offset=".794" stop-color="#262478"/><stop offset="1" stop-color="#1e1c6b"/></linearGradient><linearGradient id="y" x1="686.607" x2="738.586" y1="742.202" y2="742.202" xlink:href="#a"/><linearGradient id="z" x1="665.857" x2="732.524" y1="740.566" y2="740.566" gradientUnits="userSpaceOnUse"><stop offset=".264" stop-color="#6b66e7"/><stop offset=".34" stop-color="#605bd7"/><stop offset=".487" stop-color="#4440ae"/><stop offset=".494" stop-color="#423eac"/></linearGradient><linearGradient id="A" x1="508.691" x2="599.601" y1="404.03" y2="404.03" gradientUnits="userSpaceOnUse"><stop offset="0" stop-color="#c6cbe7"/><stop offset=".135" stop-color="#d3d7ed"/><stop offset=".439" stop-color="#ebedf7"/><stop offset=".721" stop-color="#fafafd"/><stop offset=".955" stop-color="#fff"/></linearGradient><linearGradient id="B" x1="462.007" x2="554.435" y1="382.462" y2="382.462" gradientUnits="userSpaceOnUse"><stop offset="0" stop-color="#ced3f8"/><stop offset=".471" stop-color="#c3c8ed"/><stop offset="1" stop-color="#bbc0e6"/></linearGradient><linearGradient id="m" x1="472.027" x2="544.416" y1="331.795" y2="331.795" gradientUnits="userSpaceOnUse"><stop offset="0" stop-color="#bbc0e6"/><stop offset="1" stop-color="#ced3f8"/></linearGradient><linearGradient id="C" x1="505.013" x2="543.972" y1="341.981" y2="341.981" gradientUnits="userSpaceOnUse"><stop offset="0" stop-color="#c4cae9"/><stop offset=".261" stop-color="#c8cdea"/><stop offset=".501" stop-color="#d3d7ef"/><stop offset=".733" stop-color="#e5e8f5"/><stop offset=".955" stop-color="#fff"/></linearGradient><linearGradient id="D" x1="515.626" x2="554.435" y1="334.835" y2="334.835" gradientUnits="userSpaceOnUse"><stop offset="0" stop-color="#c6cbe7"/><stop offset=".331" stop-color="#d5d9ed"/><stop offset=".968" stop-color="#fdfdfe"/><stop offset="1" stop-color="#fff"/></linearGradient><linearGradient id="d" x1="481.006" x2="531.467" y1="313.411" y2="317.841" gradientUnits="userSpaceOnUse"><stop offset="0" stop-color="#423eaf"/><stop offset=".161" stop-color="#38349d"/><stop offset=".441" stop-color="#2b2584"/><stop offset=".695" stop-color="#231c74"/><stop offset=".899" stop-color="#20196f"/></linearGradient><linearGradient id="c" x1="480.516" x2="531.653" y1="314.377" y2="318.866" gradientUnits="userSpaceOnUse"><stop offset="0" stop-color="#6b67e9"/><stop offset=".023" stop-color="#6965e5"/><stop offset=".275" stop-color="#534dc2"/><stop offset=".512" stop-color="#433ca9"/><stop offset=".727" stop-color="#393299"/><stop offset=".899" stop-color="#362e94"/></linearGradient><linearGradient id="E" x1="481.055" x2="531.518" y1="312.836" y2="317.265" xlink:href="#c"/><linearGradient id="F" x1="481.179" x2="531.636" y1="311.462" y2="315.891" xlink:href="#d"/><linearGradient id="G" x1="481.054" x2="531.509" y1="312.895" y2="317.325" xlink:href="#c"/><linearGradient id="H" x1="481.086" x2="531.177" y1="314.427" y2="318.825" xlink:href="#d"/><linearGradient id="I" x1="707.37" x2="1010.052" y1="567.367" y2="567.367" gradientUnits="userSpaceOnUse"><stop offset="0" stop-color="#c2c8e7"/><stop offset=".409" stop-color="#e2e5f4"/><stop offset=".766" stop-color="#f7f8fc"/><stop offset="1" stop-color="#fff"/></linearGradient><linearGradient id="J" x1="-2.212" x2="212.602" y1="587.44" y2="587.44" gradientTransform="matrix(-1 0 0 1 841.533 0)" gradientUnits="userSpaceOnUse"><stop offset=".242" stop-color="#423eac"/><stop offset=".304" stop-color="#4440ae"/><stop offset=".337" stop-color="#4945b6"/><stop offset=".363" stop-color="#524ec4"/><stop offset=".385" stop-color="#605bd7"/><stop offset=".399" stop-color="#6b66e7"/></linearGradient><linearGradient id="K" x1="705.239" x2="840.884" y1="562.848" y2="562.848" gradientUnits="userSpaceOnUse"><stop offset="0" stop-color="#dae0f5"/><stop offset=".319" stop-color="#e0e5f7"/><stop offset=".765" stop-color="#f3f5fc"/><stop offset="1" stop-color="#fff"/></linearGradient><linearGradient id="L" x1="209.65" x2="-57.909" y1="87.889" y2="551.314" gradientTransform="matrix(-1 0 0 1 841.533 0)" gradientUnits="userSpaceOnUse"><stop offset=".635" stop-color="#6b67e9"/><stop offset=".697" stop-color="#20196f"/></linearGradient><linearGradient id="M" x1="673.493" x2="754.251" y1="676.959" y2="676.959" gradientTransform="translate(13.375)" xlink:href="#a"/><linearGradient id="N" x1="31.778" x2="253.182" y1="653.433" y2="653.433" gradientTransform="matrix(-1 0 0 1 791.373 0)" gradientUnits="userSpaceOnUse"><stop offset=".264" stop-color="#423eaf"/><stop offset=".288" stop-color="#4d49bf"/><stop offset=".336" stop-color="#6a66e8"/><stop offset=".337" stop-color="#6b67e9"/></linearGradient><linearGradient id="e" x1="658.565" x2="800.686" y1="975.162" y2="975.162" gradientUnits="userSpaceOnUse"><stop offset="0" stop-color="#d1d7f3"/><stop offset=".301" stop-color="#e5e8f8"/><stop offset=".766" stop-color="#fff"/></linearGradient><linearGradient id="f" x1="621.076" x2="703.498" y1="969.503" y2="969.503" gradientUnits="userSpaceOnUse"><stop offset="0" stop-color="#f6f6fb"/><stop offset=".449" stop-color="#dadcf1"/><stop offset="1" stop-color="#bbc0e6"/></linearGradient><linearGradient id="g" x1="621.198" x2="703.161" y1="978.21" y2="978.21" gradientUnits="userSpaceOnUse"><stop offset="0" stop-color="#f6f6fb"/><stop offset="1" stop-color="#dae0f5"/></linearGradient><linearGradient id="h" x1="525.982" x2="533.807" y1="1064.976" y2="894.459" gradientTransform="rotate(-17.987 272.09 625.617)" gradientUnits="userSpaceOnUse"><stop offset="0" stop-color="#423eaf"/><stop offset="1" stop-color="#20196f"/></linearGradient><linearGradient id="O" x1="561.439" x2="703.559" y1="914.105" y2="914.105" xlink:href="#e"/><linearGradient id="P" x1="523.95" x2="606.372" y1="908.445" y2="908.445" xlink:href="#f"/><linearGradient id="Q" x1="524.072" x2="606.034" y1="917.153" y2="917.153" xlink:href="#g"/><linearGradient id="R" x1="463.289" x2="471.114" y1="968.613" y2="798.102" gradientTransform="rotate(-16.607 287.522 642.543)" xlink:href="#h"/><linearGradient id="i" x1="429.64" x2="552.036" y1="1165.996" y2="1165.996" gradientUnits="userSpaceOnUse"><stop offset="0" stop-color="#c4cae9"/><stop offset="1" stop-color="#fff"/></linearGradient><linearGradient id="S" x1="587.438" x2="709.837" y1="1074.89" y2="1074.89" xlink:href="#i"/><linearGradient id="T" x1="292.403" x2="414.8" y1="1086.761" y2="1086.761" xlink:href="#i"/><linearGradient id="U" x1="450.202" x2="572.599" y1="995.656" y2="995.656" xlink:href="#i"/><linearGradient id="V" x1="599.449" x2="277.225" y1="903.554" y2="903.554" gradientUnits="userSpaceOnUse"><stop offset=".356" stop-color="#dc8b00"/><stop offset="1" stop-color="#e19100"/></linearGradient><linearGradient id="j" x1="514.522" x2="584.595" y1="614.411" y2="614.411" gradientUnits="userSpaceOnUse"><stop offset="0" stop-color="#362e94"/><stop offset="1" stop-color="#5652cc"/></linearGradient><linearGradient id="W" x1="624.812" x2="684.312" y1="662.078" y2="627.578" xlink:href="#j"/><linearGradient id="l" x1="349.97" x2="506.548" y1="809.664" y2="809.664" gradientTransform="rotate(-7.915 252.948 594.033)" gradientUnits="userSpaceOnUse"><stop offset="0" stop-color="#20196f"/><stop offset="1" stop-color="#423eaf"/></linearGradient><linearGradient id="k" x1="410.61" x2="501.21" y1="838.396" y2="838.396" gradientUnits="userSpaceOnUse"><stop offset="0" stop-color="#fff"/><stop offset="1" stop-color="#ced3f8"/></linearGradient><linearGradient id="X" x1="428.452" x2="499.632" y1="791.256" y2="791.256" gradientUnits="userSpaceOnUse"><stop offset=".381" stop-color="#ced3f8"/><stop offset=".545" stop-color="#d3d8f9"/><stop offset=".751" stop-color="#e3e6fb"/><stop offset=".979" stop-color="#fcfcff"/><stop offset="1" stop-color="#fff"/></linearGradient><linearGradient id="Y" x1="476.514" x2="476.514" y1="783.023" y2="601.947" gradientUnits="userSpaceOnUse"><stop offset="0" stop-color="#ced3f8"/><stop offset="1" stop-color="#fff"/></linearGradient><linearGradient id="Z" x1="449.207" x2="505.121" y1="572.828" y2="572.828" gradientUnits="userSpaceOnUse"><stop offset="0" stop-color="#ced3f8"/><stop offset=".266" stop-color="#d3d8f9"/><stop offset=".598" stop-color="#e3e6fb"/><stop offset=".965" stop-color="#fcfcff"/><stop offset="1" stop-color="#fff"/></linearGradient><linearGradient id="aa" x1="432.991" x2="481.074" y1="546.256" y2="577.729" gradientUnits="userSpaceOnUse"><stop offset="0" stop-color="#5652cc"/><stop offset="1" stop-color="#362e94"/></linearGradient><linearGradient id="ab" x1="412.773" x2="503.553" y1="462.917" y2="521.87" gradientUnits="userSpaceOnUse"><stop offset="0" stop-color="#fff"/><stop offset=".216" stop-color="#f8f8fc"/><stop offset=".542" stop-color="#e3e5f5"/><stop offset=".935" stop-color="#c1c6e8"/><stop offset="1" stop-color="#bbc0e6"/></linearGradient><linearGradient id="ac" x1="439.365" x2="501.253" y1="515.209" y2="515.209" xlink:href="#k"/><linearGradient id="ad" x1="468.49" x2="625.072" y1="836.68" y2="836.68" xlink:href="#l"/><linearGradient id="ae" x1="482.999" x2="491.268" y1="499.311" y2="499.311" gradientUnits="userSpaceOnUse"><stop offset="0" stop-color="#5652cc"/><stop offset=".578" stop-color="#443ead"/><stop offset="1" stop-color="#362e94"/></linearGradient><linearGradient id="af" x1="482.451" x2="637.905" y1="661.489" y2="661.489" gradientUnits="userSpaceOnUse"><stop offset="0" stop-color="#423eaf"/><stop offset="1" stop-color="#6b67e9"/></linearGradient><linearGradient id="ag" x1="532.165" x2="587.323" y1="618.988" y2="618.988" gradientUnits="userSpaceOnUse"><stop offset="0" stop-color="#fff"/><stop offset=".009" stop-color="#fefeff"/><stop offset=".341" stop-color="#eaeef9"/><stop offset=".672" stop-color="#dee3f6"/><stop offset="1" stop-color="#dae0f5"/></linearGradient><linearGradient id="ah" x1="512.351" x2="690.743" y1="683.01" y2="683.01" gradientUnits="userSpaceOnUse"><stop offset="0" stop-color="#fff"/><stop offset="1" stop-color="#dae0f5"/></linearGradient><linearGradient id="ai" x1="599.448" x2="277.226" y1="846.424" y2="846.424" gradientUnits="userSpaceOnUse"><stop offset=".356" stop-color="#e19100"/><stop offset=".467" stop-color="#e79e0d"/><stop offset=".815" stop-color="#f8c230"/><stop offset="1" stop-color="#ffd03e"/></linearGradient><linearGradient id="aj" x1="867.048" x2="1125.301" y1="694.693" y2="694.693" gradientUnits="userSpaceOnUse"><stop offset=".534" stop-color="#c4c9e5"/><stop offset=".839" stop-color="#eeeff8"/><stop offset="1" stop-color="#fff"/></linearGradient><linearGradient id="ak" x1="1078.728" x2="1088.138" y1="707.9" y2="691.601" gradientUnits="userSpaceOnUse"><stop offset="0" stop-color="#6a6ae0"/><stop offset=".15" stop-color="#6464d7"/><stop offset=".396" stop-color="#5454bf"/><stop offset=".703" stop-color="#3b3a98"/><stop offset="1" stop-color="#1e1c6b"/></linearGradient><linearGradient id="al" x1="1016.958" x2="1019.146" y1="651.563" y2="647.773" gradientUnits="userSpaceOnUse"><stop offset="0" stop-color="#6a6ae0"/><stop offset=".259" stop-color="#6463d7"/><stop offset=".679" stop-color="#5252bf"/><stop offset="1" stop-color="#4241a8"/></linearGradient><linearGradient id="am" x1="993.85" x2="1087.911" y1="694.829" y2="694.829" gradientUnits="userSpaceOnUse"><stop offset="0" stop-color="#c4c9e5"/><stop offset=".809" stop-color="#f3f4fa"/><stop offset="1" stop-color="#fff"/></linearGradient><linearGradient id="an" x1="972.647" x2="1071.331" y1="627.764" y2="627.764" gradientUnits="userSpaceOnUse"><stop offset="0" stop-color="#c6cbe7"/><stop offset=".108" stop-color="#d1d5ec"/><stop offset=".408" stop-color="#eaecf6"/><stop offset=".681" stop-color="#fafafd"/><stop offset=".899" stop-color="#fff"/></linearGradient><linearGradient id="ao" x1="933.231" x2="1014.664" y1="608.13" y2="608.13" gradientUnits="userSpaceOnUse"><stop offset="0" stop-color="#5555c6"/><stop offset="1" stop-color="#34318f"/></linearGradient><linearGradient id="ap" x1="930.79" x2="1017.164" y1="608.23" y2="608.23" gradientUnits="userSpaceOnUse"><stop offset="0" stop-color="#5555c6"/><stop offset=".03" stop-color="#7f7ff4"/><stop offset="1" stop-color="#4141aa"/></linearGradient><linearGradient id="ar" x1="930.462" x2="1017.434" y1="580.515" y2="580.515" gradientUnits="userSpaceOnUse"><stop offset="0" stop-color="#fff"/><stop offset=".324" stop-color="#eceff9"/><stop offset=".662" stop-color="#e0e4f5"/><stop offset="1" stop-color="#dce1f4"/></linearGradient><linearGradient id="as" x1="1014.122" x2="1018.988" y1="568.466" y2="576.895" gradientUnits="userSpaceOnUse"><stop offset=".006" stop-color="#fff"/><stop offset="1" stop-color="#f1f1f6"/></linearGradient><linearGradient id="at" x1="990.256" x2="962.153" y1="565.206" y2="516.531" gradientUnits="userSpaceOnUse"><stop offset="0"/><stop offset=".098" stop-color="#2d2116"/><stop offset=".226" stop-color="#614830"/><stop offset=".356" stop-color="#8e6946"/><stop offset=".486" stop-color="#b28358"/><stop offset=".615" stop-color="#cf9866"/><stop offset=".744" stop-color="#e3a770"/><stop offset=".872" stop-color="#efb076"/><stop offset="1" stop-color="#f3b378"/></linearGradient><linearGradient id="au" x1="552.314" x2="644.299" y1="516.725" y2="516.725" gradientUnits="userSpaceOnUse"><stop offset="0" stop-color="#c6cbe7"/><stop offset="1" stop-color="#fff"/></linearGradient><linearGradient id="av" x1="44.347" x2="136.376" y1="518.228" y2="518.228" gradientTransform="translate(475.166)" gradientUnits="userSpaceOnUse"><stop offset="0" stop-color="#ced3f8"/><stop offset=".417" stop-color="#c4c9ef"/><stop offset="1" stop-color="#bbc0e6"/></linearGradient><linearGradient id="aw" x1="736.903" x2="829.628" y1="833.856" y2="833.856" gradientUnits="userSpaceOnUse"><stop offset=".438" stop-color="#c2c9eb"/><stop offset=".569" stop-color="#c7ceed"/><stop offset=".734" stop-color="#d7dcf2"/><stop offset=".917" stop-color="#f1f2fa"/><stop offset="1" stop-color="#fff"/></linearGradient><linearGradient id="ax" x1="485.991" x2="481.59" y1="811.562" y2="800.748" gradientTransform="matrix(-1 0 0 1 1217.736 0)" gradientUnits="userSpaceOnUse"><stop offset="0" stop-color="#b9bfe8"/><stop offset=".22" stop-color="#c2c7eb"/><stop offset=".582" stop-color="#dbdef3"/><stop offset="1" stop-color="#fff"/></linearGradient><linearGradient id="ay" x1="490.862" x2="489.1" y1="803.584" y2="800.132" gradientTransform="matrix(-1 0 0 1 1217.736 0)" gradientUnits="userSpaceOnUse"><stop offset="0" stop-color="#231574"/><stop offset=".212" stop-color="#2b1e83"/><stop offset=".616" stop-color="#4135a9"/><stop offset="1" stop-color="#584fd3"/></linearGradient><linearGradient id="az" x1="872.033" x2="821.887" y1="197.682" y2="115.027" xlink:href="#m"/><linearGradient id="aA" x1="799.954" x2="848.279" y1="670.542" y2="670.542" gradientUnits="userSpaceOnUse"><stop offset=".427" stop-color="#c4c9e4"/><stop offset=".577" stop-color="#d7daed"/><stop offset=".846" stop-color="#f4f5fa"/><stop offset="1" stop-color="#fff"/></linearGradient><linearGradient id="aB" x1="789.3" x2="837.65" y1="673.402" y2="673.402" gradientUnits="userSpaceOnUse"><stop offset="0" stop-color="#fcba06"/><stop offset=".213" stop-color="#f3ad04"/><stop offset=".702" stop-color="#e29401"/><stop offset="1" stop-color="#dc8b00"/></linearGradient><radialGradient id="aq" cx="938.495" cy="489.914" r="136.977" gradientUnits="userSpaceOnUse"><stop offset="0" stop-color="#ffd03e"/><stop offset=".35" stop-color="#fecd3b"/><stop offset=".565" stop-color="#fac533"/><stop offset=".743" stop-color="#f3b725"/><stop offset=".901" stop-color="#e9a211"/><stop offset="1" stop-color="#e19100"/></radialGradient></defs><g data-name="Linear cubes"><path fill="url(#a)" d="M762.146 1169.084h168.199v21.318H762.146z"/><path fill="url(#n)" d="M251.563 874.299h168.199v21.318H251.563z"/><path fill="url(#o)" d="M1095.657 976.533h168.199v21.318h-168.199z"/><path fill="#423eaf" d="m1095.657 997.851-56.961-224.871 17.321-10 56.961 224.871-17.321 10zM779.466 1180.402l56.963-290.641-17.322 10-56.961 290.641 17.32-10z"/><path fill="#6b67e9" d="m762.146 1190.402-17.321-10 56.961-290.641 17.321 10-56.961 290.641zM1095.657 997.851l-17.32-10-56.961-224.871 17.32 10 56.961 224.871z"/><path fill="#423eaf" d="M814.091 863.328v56l275.816-159.242v-56L814.091 863.328z"/><path fill="#6b67e9" d="M767.905 836.66v56l46.186 26.668v-56l-46.186-26.668z"/><path fill="#423eac" d="m585.075 669.304-56.961-191.111 17.32-10 56.961 191.111-17.32 10z"/><path fill="#423eaf" d="m268.884 885.617 56.963-290.645-17.323 10-56.961 290.645 17.321-10z"/><path fill="#6b67e9" d="m251.563 895.617-17.32-10 56.961-290.645 17.32 10-56.961 290.645z"/><path fill="#6b66e7" d="m585.075 669.304-17.32-10-56.961-191.111 17.32 10 56.961 191.111z"/><path fill="#423eac" d="M303.509 568.539v56.002l275.816-159.242v-56l-275.816 159.24z"/><path fill="#6b67e9" d="M257.323 541.873v55.998l46.186 26.67v-56.002l-46.186-26.666z"/><path fill="#ccd1f6" d="M814.448 906.84 181.954 541.674V525.67l632.494 365.173v15.997z"/><path fill="#b9bee4" d="m814.448 890.843 350.834-202.554-.002 16-350.832 202.554v-16z"/><path fill="#efeff3" d="m181.952 525.674 350.834-202.553 632.49 365.172-350.828 202.55-632.496-365.169z"/><path d="M275.837 497.349c23.638-13.648 61.965-13.648 85.603 0 11.819 6.823 17.726 15.765 17.726 24.706.004 8.946-5.907 17.892-17.726 24.716-23.638 13.647-61.965 13.649-85.603 0-23.636-13.648-23.636-35.775 0-49.422Z" style="mix-blend-mode:multiply" fill="url(#p)"/><path fill="#fff" d="M262.268 489.513c23.637-13.645 61.965-13.645 85.603 0 11.817 6.824 17.725 15.767 17.725 24.71.004 8.944-5.908 17.89-17.725 24.712-23.638 13.65-61.966 13.65-85.603 0-23.636-13.643-23.636-35.775 0-49.422Z"/><path d="M336.608 500.608h-10.746a15.75 15.75 0 0 1 1.045 5.376c0 2.795-.998 4.744-2.594 5.637l-26.231 15.152a4.427 4.427 0 0 1-1.968.59h34.173l14.076-8.126h20.612a20.595 20.595 0 0 0 .621-5.014 21.468 21.468 0 0 0-2.113-9.14h-19.12Z" style="mix-blend-mode:multiply" fill="url(#q)"/><path fill="url(#r)" d="M347.871 538.935c-23.638 13.65-61.966 13.65-85.603 0-11.807-6.814-17.716-15.749-17.727-24.683v7.827c.011 8.94 5.917 17.874 17.727 24.692 23.637 13.649 61.965 13.647 85.603 0 11.808-6.818 17.715-15.753 17.725-24.692v-7.856c.004 8.944-5.908 17.89-17.725 24.712Z"/><path fill="#ced3f8" d="M283.227 511.169c0-5.533 3.884-7.775 8.675-5.006 4.79 2.767 8.673 9.491 8.673 15.023 0 5.533-3.884 7.775-8.673 5.008-4.794-2.765-8.675-9.492-8.675-15.025Z"/><path fill="url(#b)" d="M326.907 505.984c0-5.533-3.884-12.256-8.674-15.023-2.49-1.441-4.72-1.501-6.3-.472-.01-.016-26.136 15.053-26.136 15.053 1.567-.89 3.724-.755 6.105.621 4.79 2.767 8.673 9.491 8.673 15.023 0 2.737-.955 4.664-2.5 5.582.007.005 26.24-15.143 26.24-15.143 1.594-.897 2.592-2.846 2.592-5.64Z"/><path fill="#362e93" d="M296.996 503.223c3.425 1.978 6.359 5.98 7.77 10.122l-49.04-174.384-11.428-1.472 46.51 165.167c1.574-.943 3.761-.838 6.188.567Z"/><path fill="#1f196f" d="m304.766 513.345 12.255-7.077-49.039-174.385-12.257 7.078 49.041 174.384z"/><path fill="#ced3f8" d="M232.436 330.651c0-5.533 3.882-7.776 8.672-5.007 4.791 2.766 8.675 9.492 8.675 15.025 0 5.534-3.884 7.773-8.675 5.007-4.792-2.767-8.672-9.492-8.672-15.025Z"/><path fill="url(#s)" d="M276.116 325.467c0-5.534-3.882-12.259-8.676-15.025-2.49-1.439-4.72-1.499-6.3-.47-.01-.018-26.135 15.051-26.135 15.051 1.567-.887 3.724-.755 6.103.62 4.791 2.767 8.675 9.493 8.675 15.026 0 2.739-.957 4.661-2.499 5.579.006.007 26.24-15.139 26.24-15.139 1.595-.901 2.592-2.847 2.592-5.642Z"/><path fill="#362e93" d="M256.82 336.607c0 .349-.057.647-.086.969l99.214-36.626-7.77-15.434-99.215 36.631c4.404 3.024 7.857 9.25 7.857 14.46Z"/><path fill="#5652cc" d="m248.963 322.147 12.255-7.077 99.216-36.63-12.256 7.076-99.215 36.631z"/><path fill="#ced3f8" d="M336.04 291.898c0-5.534 3.882-7.776 8.671-5.007 4.792 2.767 8.676 9.49 8.676 15.025 0 5.532-3.884 7.773-8.676 5.005-4.792-2.766-8.672-9.49-8.672-15.023Z"/><path fill="url(#t)" d="M379.72 286.712c0-5.532-3.884-12.257-8.677-15.024-2.489-1.44-4.72-1.5-6.3-.47-.01-.017-26.133 15.053-26.133 15.053 1.566-.89 3.722-.757 6.101.62 4.792 2.767 8.676 9.49 8.676 15.025 0 2.737-.959 4.663-2.499 5.58.005.006 26.24-15.141 26.24-15.141 1.595-.9 2.592-2.847 2.592-5.643Z"/><path fill="url(#u)" d="M452.595 321.345c-.043-.082-63.767-85.036-63.767-85.036l-51.254 24.532 25.394 102.793c.041 1.383 3.258 1.292 9.911-.633 15.553-4.505 43.814-17.252 63.116-28.468 11.92-6.929 17.622-11.644 16.6-13.188Z"/><path fill="#807cfb" d="M383.258 236.957c8.911-2.58 7.165.54-3.904 6.974-11.06 6.428-27.259 13.732-36.17 16.312-8.906 2.58-7.16-.542 3.9-6.97 11.068-6.433 27.265-13.739 36.174-16.316Z"/><path fill="url(#v)" d="m379.395 240.825-3.819-8.054-32.443 15.386 3.872 8.17c.221.353 1.385.263 3.546-.363 5.636-1.633 15.877-6.25 22.871-10.315 4.448-2.584 6.502-4.32 5.973-4.824Z"/><path fill="#6b67e9" d="M371.997 233.033c5.633-1.633 4.53.342-2.465 4.409-6.995 4.065-17.237 8.682-22.872 10.314-5.633 1.632-4.525-.344 2.467-4.407 6.997-4.066 17.24-8.686 22.87-10.316Z"/><path d="M954.715 771.006c-10.7-6.18-24.72-9.269-38.745-9.274h-20.151v31.616h-.003c.108 8.156-5.217 16.334-15.996 22.556-9.616 5.552-21.928 8.593-34.504 9.142h71.22l.009-.006c13.832-.087 27.619-3.17 38.17-9.264 21.416-12.363 21.414-32.406 0-44.77Z" style="mix-blend-mode:multiply" fill="url(#w)"/><path fill="url(#x)" d="M879.82 769.505c-21.339 12.32-55.943 12.32-77.284-.002-10.67-6.161-16.006-14.236-16.006-22.31v46.155l.01-3.16c-.11 8.157 5.217 19.492 15.996 25.715 21.341 12.322 55.945 12.322 77.284.001 10.779-6.222 16.104-14.4 15.996-22.556h.003v-45.983c-.077 8.02-5.405 16.022-16 22.14Z"/><path fill="#34318f" d="m841.253 796.93 89.493-51.669v1.89l-89.494 51.67.001-1.891z"/><path fill="#5555c6" d="m841.251 796.93-89.494-51.669.001 1.89 89.494 51.67-.001-1.891z"/><path fill="#6a6ae2" d="m751.761 745.259 89.492-51.668 89.493 51.67-89.492 51.669-89.493-51.671z"/><path fill="#ffd03e" d="m793.102 806.572 3.403-1.966 3.404 1.966-3.404 1.965-3.403-1.965z"/><path fill="#e19100" d="m803.303 816.037-6.797 3.922-.001-11.422 3.404-1.965 3.394 9.465z"/><path fill="#fcba06" d="m793.102 806.572 3.403 1.965.001 11.422-6.796-3.922 3.392-9.465zM798.207 772.079l.001 35.476-3.405-1.966.002-35.474 3.402 1.964z"/><path fill="#ffd03e" d="m839.55 744.279-44.745 25.836 3.402 1.964 44.746-25.837-3.403-1.963z"/><path fill="#ffd03e" d="M837.137 747.634c-2.273-1.309-2.274-3.438 0-4.748a9.085 9.085 0 0 1 8.233 0c2.272 1.31 2.272 3.44 0 4.75a9.086 9.086 0 0 1-8.233-.002Z"/><path d="M732.523 728.504s-1.346 4.976-4.147 6.595l-26.434 15.26-1.335-.912s-6.25 3.25-14 6.453c14.875 0 17.082-1.025 19.898-2.426 16.488-7.347 23.758-11.31 31.797-18.162 1.832-1.668-5.78-6.808-5.78-6.808Z" style="mix-blend-mode:multiply" fill="url(#y)"/><path fill="#fff" d="M728.355 720.685c2.623 1.514 4.123 3.092 4.168 4.547.052 1.615-1.631 3.076-4.518 4.135-11.867 4.64-18.73 8.838-31.46 18.357-5.528 4.373-14.581 6.137-20.118 2.944l-6.447-3.723a7.629 7.629 0 0 1-4.114-6.55 9.286 9.286 0 0 1 3.895-7.473c12.125-9.829 20.271-14.309 31.681-18.631 5.48-1.985 14.928-.526 20.467 2.674 2.578 1.486 3.866 2.232 6.446 3.72Z"/><path fill="url(#z)" d="M728.005 729.367c-11.867 4.64-18.73 8.838-31.46 18.357-5.528 4.373-14.581 6.137-20.118 2.944l-6.447-3.723a7.629 7.629 0 0 1-4.114-6.55v3.302a4.821 4.821 0 0 0 0 .584v.105h.008c.166 1.961 1.53 3.897 4.121 5.393l6.447 3.723c5.54 3.195 14.516 3.199 20.057 0l31.873-18.405c2.805-1.617 4.182-3.748 4.149-5.87h.002v-3.995c.052 1.615-1.631 3.076-4.518 4.135Z"/><path fill="#b9bee4" d="M707.636 725.513c-1.264-.722-1.303-1.785-.051-2.212a6.654 6.654 0 0 1 4.604.734c1.138.639 1.214 1.44-.04 1.869a6.355 6.355 0 0 1-4.513-.39Z"/><path fill="#fbba05" d="m750.262 241.235-132.135-76.286V87.417l132.135 76.288v77.53z"/><path fill="#fbba05" d="M750.262 163.705 618.127 87.417l3.949-2.28 132.135 76.287-3.949 2.281z"/><path fill="#ffd03e" d="M618.127 87.417v7.745l66.067 80.842 66.068-4.554v-7.745L618.127 87.417z"/><path fill="#dc8b00" d="m754.211 238.958-3.949 2.277V171.45l3.949-2.279v69.787z"/><path fill="#e19100" d="m754.211 169.171-3.949 2.279v-7.745l3.949-2.281v7.747z"/><path style="mix-blend-mode:multiply" fill="url(#A)" d="m599.601 374.541-90.91 9.276v40.42l90.91 9.281v-58.977z"/><path fill="url(#B)" d="m462.007 340.677 11.813 63.71c0 5.081 3.352 10.162 10.071 14.043 13.432 7.756 35.223 7.756 48.657 0 6.715-3.881 10.074-8.962 10.074-14.046l11.813-63.707Z"/><path fill="#f6f6fb" d="M462.007 340.677c0-6.828 4.508-13.657 13.534-18.866 18.046-10.42 47.31-10.42 65.36 0 9.022 5.209 13.534 12.038 13.534 18.866 0 6.832-4.512 13.659-13.534 18.868-18.05 10.418-47.31 10.418-65.36 0-9.024-5.21-13.534-12.036-13.534-18.868Z"/><path fill="url(#m)" d="M482.623 332.162c14.135-8.162 37.06-8.162 51.194.005 5.681 3.279 9.039 7.382 10.155 11.642a12.648 12.648 0 0 0 .444-3.132c0-5.348-3.53-10.698-10.599-14.776-14.133-8.16-37.059-8.16-51.194 0-7.061 4.078-10.603 9.43-10.596 14.776a12.273 12.273 0 0 0 .448 3.132c1.107-4.264 4.467-8.363 10.148-11.647Z"/><path fill="#807dfb" d="M482.623 355.454c14.138 8.164 37.06 8.164 51.194 0 5.681-3.279 9.039-7.385 10.155-11.645-1.116-4.26-4.474-8.363-10.155-11.642-14.133-8.167-37.059-8.167-51.194-.005-5.68 3.284-9.04 7.383-10.148 11.647 1.107 4.26 4.467 8.366 10.148 11.645Z"/><path d="M507.353 356.982c4.936 0 12.99.219 22.07.604a38.793 38.793 0 0 0 4.394-2.132c5.681-3.279 9.039-7.385 10.155-11.645-1.116-4.26-4.474-8.363-10.155-11.642a48.869 48.869 0 0 0-19.294-5.792 436.117 436.117 0 0 0-9.51 2.606Z" style="mix-blend-mode:multiply" fill="url(#C)"/><path d="M540.901 321.81a54.035 54.035 0 0 0-11.75-4.912 478.907 478.907 0 0 0-13.525 3.334 48.294 48.294 0 0 1 18.191 5.669c7.07 4.078 10.6 9.428 10.6 14.776a12.648 12.648 0 0 1-.445 3.132 17.103 17.103 0 0 1-5.537 8.346c3.65.185 7.347.392 10.984.618a18.295 18.295 0 0 0 5.016-12.096c0-6.828-4.512-13.657-13.534-18.866Z" style="mix-blend-mode:multiply" fill="url(#D)"/><path fill="#423eaf" d="M553.192 291.415c-12.087-12.176-29.267 13.468-33.778 20.347 0 0 .524 1.18 1.613 3.054 11.07-11.162 26.598-20.298 32.165-23.4Z"/><path fill="#362e94" d="M554.404 292.784a16.511 16.511 0 0 0-1.212-1.369c-5.567 3.103-21.095 12.24-32.165 23.4a56.36 56.36 0 0 0 4.538 6.646c21.28-5.039 38.043-17.038 28.84-28.677Z"/><path fill="url(#d)" d="M507.353 276.484c-13.488 5.22-26.635 17.97-15.091 75.995.44.342 4.823 1.186 6.865 1.762-6.087-57.812-.183-70.372 8.226-77.757Z"/><path fill="url(#c)" d="M499.127 354.241a23.7 23.7 0 0 0 8.226 2.741v-80.498c-8.41 7.385-14.313 19.945-8.226 77.757Z"/><path fill="url(#E)" d="M507.353 276.484c-36.395 0-22.927 56.58-18.996 70.769a10.811 10.811 0 0 0 3.905 5.226c-11.544-58.025 1.603-70.776 15.091-75.995Z"/><path fill="url(#F)" d="M507.353 276.484c13.897 4.81 26.636 17.97 15.088 75.995a10.94 10.94 0 0 0 3.822-4.998h.002c.01-.036.031-.079.04-.115a.794.794 0 0 0 .044-.123c4.191-11.28 17.16-70.759-18.996-70.759Z"/><path fill="url(#G)" d="M507.353 276.484c8.407 7.385 14.13 20.33 8.04 78.146a72.409 72.409 0 0 0 7.048-2.151c11.548-58.025-1.191-71.185-15.088-75.995Z"/><path fill="url(#H)" d="M507.353 276.484v80.498c3.01-.811 5.492-1.631 8.04-2.352 6.09-57.816.367-70.761-8.04-78.146Z"/><path d="M846.62 598.672h163.432l-165.7-95.666-132.53 76.109c-5.936 3.426-5.936 9.033 0 12.461 0 0 63.308 36.531 63.599 36.676l-9.666 3.476h15.521a29.48 29.48 0 0 0 14.881-3.922Z" style="mix-blend-mode:multiply" fill="url(#I)"/><path fill="#f6f6fb" d="M696.12 500.42c5.938-3.426 15.649-3.426 21.586 0l121.592 70.203c5.936 3.428 5.936 9.033 0 12.463l-62.75 36.232c-5.938 3.422-15.65 3.422-21.586 0l-121.596-70.207c-5.937-3.426-5.937-9.031 0-12.46Z"/><path fill="url(#J)" d="m633.366 549.111 121.596 70.207c5.936 3.422 15.648 3.422 21.586 0l62.75-36.232c2.852-1.645 4.318-3.797 4.43-5.965.017 0 .017 9.562.017 9.562.004 2.262-1.472 4.524-4.447 6.243l-62.75 36.232c-5.938 3.43-15.65 3.43-21.586 0l-121.596-70.205c-3.084-1.781-4.55-4.147-4.428-6.494v-9.309c.11 2.168 1.579 4.317 4.428 5.961Z"/><path d="m762.439 536.88-1.06-.011h-56.14c.254 2.039 1.711 4.035 4.397 5.586l66.994 38.678-.479 1.039-11.535 6.656h64.735l11.533-6.656Z" style="mix-blend-mode:multiply" fill="url(#K)"/><path fill="#ced3f8" d="M694.849 524.525a103.69 103.69 0 0 0 4.892-32.988l8.635-4.985c0 2.207-.006 5.567-.291 9.801l70.102 40.473c0 7.398-.01 29.592-13.57 52.002l-78.448-45.287Z"/><path fill="#c6b4bb" d="m699.741 491.533 78.446 45.293 8.632-4.984-78.443-45.29-8.635 4.981z"/><path fill="#bbc0e6" d="M764.616 588.828c13.56-22.41 13.57-44.604 13.57-52.002l8.633-4.984a115.807 115.807 0 0 1-10.668 50.33Z"/><path d="m773.862 568.031 9.274-5.355a115.1 115.1 0 0 0 3.01-16.694l-8.725 5.043a99.599 99.599 0 0 1-3.559 17.006Z" style="mix-blend-mode:multiply" fill="#d8def3"/><path fill="#423eaf" d="M569.856 184.378c.004-6.856 4.858-9.658 10.791-6.23L871.47 346.051c5.935 3.426 10.79 11.836 10.793 18.692l-.002 194.933-312.4-180.363Z"/><path fill="url(#L)" d="M592.35 171.393 883.173 339.3c5.936 3.425 10.793 11.835 10.793 18.691v194.937l-11.705 6.75.002-194.933c-.002-6.856-4.858-15.266-10.793-18.692L580.647 178.147c-2.422-1.397-4.65-1.744-6.463-1.216l9.362-5.327c1.959-2.061 5.178-2.305 8.804-.21Z"/><path fill="#d7ddfd" d="m882.26 559.677.003 39.413c-.002 6.855-4.858 9.656-10.793 6.23L580.647 437.416c-5.933-3.426-10.79-11.84-10.79-18.692l.003-39.41Z"/><path fill="#bbc0e6" d="m882.263 599.09-.002-39.413 11.705-6.75v39.409c0 3.445-1.232 5.869-3.21 6.984l-11.218 6.434c1.688-1.23 2.725-3.512 2.725-6.664Z"/><path fill="#f1f1f6" d="M580.649 385.545 871.47 553.451V358.513L580.647 190.608l.002 194.937z"/><path fill="#fff" d="m785.943 491.069-197.349-113.94.002-154.234 197.349 113.941-.002 154.233z"/><path fill="#dae0f5" d="m688.236 287.273-1.931-1.115.002 140.533 1.929 1.115V287.273z"/><path fill="#807dfb" d="m625.91 264.707-4.584-2.647v-5.292l4.584 2.647v5.292zM638.818 272.159l-4.584-2.647v-5.292l4.584 2.647v5.292zM651.725 279.611l-4.584-2.647v-5.292l4.584 2.647v5.292zM677.139 310.024l-79.375-45.827v-3.164l79.375 45.826v3.165zM677.139 329.525l-79.375-45.827v-3.165l79.375 45.826v3.166zM677.139 349.025l-79.375-45.826v-3.166l79.375 45.827v3.165zM677.139 368.526 597.764 322.7v-3.166l79.375 45.827v3.165zM677.139 388.026l-79.375-45.827v-3.163l79.375 45.827v3.163zM660.01 397.637 597.764 361.7v-3.163l62.244 35.936.002 3.164z"/><path fill="#fcba06" d="m776.777 377.301-79.375-45.826v-3.165l79.375 45.827v3.164z"/><path fill="#ced3f8" d="m776.777 367.551-79.375-45.827v-21.033l79.375 45.827v21.033z"/><path fill="#807dfb" d="m776.779 396.801-79.377-45.827v-3.163l79.375 45.827.002 3.163zM776.779 416.302l-79.375-45.827-.002-3.163 79.375 45.826.002 3.164zM776.779 435.802l-79.375-45.826-.002-3.165 79.377 45.827v3.164zM758.789 444.917l-61.385-35.44v-3.165l61.385 35.44v3.165z"/><path fill="#5652cc" d="M822.022 368.414c-.006-12.147 8.52-17.07 19.043-10.996 10.517 6.073 19.046 20.842 19.046 32.989 0 12.146-8.525 17.071-19.046 10.997-10.522-6.072-19.05-20.843-19.043-32.99Z"/><path fill="#fcba06" d="M843.975 381.612c1.64-.307 2.748-1.925 2.748-4.53 0-3.955-2.533-8.626-5.658-10.431-3.125-1.804-5.659-.059-5.659 3.898a13.572 13.572 0 0 0 2.748 7.702c-4.783-.905-7.826 2.098-7.826 5.977.817.47 10.737 6.197 10.737 6.197s9.917 5.728 10.734 6.198c.002-3.878-3.041-10.394-7.824-15.011Z"/><path fill="#807dfb" d="m839.818 425.287 20.293 11.715v-13.194l-20.293-11.715v13.194zM793.588 336.843l23.463 13.548v-6.598l-23.463-13.549v6.599zM801.34 349.329l15.711 9.07v-3.771l-15.711-9.071v3.772zM839.818 446.493l20.293 11.716v-13.194l-20.293-11.714v13.192zM845.635 471.06l14.476 8.358v-13.193l-14.476-8.358v13.193z"/><path d="m765.212 658.443-8.309-4.797c3.217 1.858 3.217 4.899 0 6.754l-58.334 33.682a12.982 12.982 0 0 1-11.7 0l8.142 4.699-2.582 1.49h8.31a12.282 12.282 0 0 0 6.14-1.392l58.333-33.68c3.219-1.857 3.219-4.897 0-6.756Z" style="mix-blend-mode:multiply" fill="url(#M)"/><path fill="url(#N)" d="m540.602 609.968 145.686 84.114a12.982 12.982 0 0 0 11.701 0l59.194-34.176a4.21 4.21 0 0 0 2.396-3.178c.016 0 .016 4.598.016 4.598 0 1.225-.805 2.45-2.412 3.379l-59.194 34.174a12.982 12.982 0 0 1-11.7 0l-145.687-84.112c-1.746-1.008-2.535-2.363-2.388-3.687-.024 0-.024-4.487-.024-4.487 0 1.223.803 2.448 2.412 3.375Z"/><path fill="#1967a5" d="M538.198 606.48c-.002.04-.008.074-.008.113a.553.553 0 0 1 .008-.113Z"/><path fill="#fff" d="M697.99 694.082a12.982 12.982 0 0 1-11.702 0l-145.686-84.114c-3.216-1.855-3.216-4.896 0-6.753l59.194-34.178a12.995 12.995 0 0 1 11.701 0l145.686 84.113c3.217 1.86 3.217 4.899 0 6.756Z"/><path fill="#efeff3" d="m606.811 581.47-7.419-4.281 7.419-4.285 7.42 4.285-7.42 4.281zM619.306 588.689l-7.42-4.285 7.42-4.285 7.419 4.285-7.419 4.285zM631.804 595.902l-7.42-4.283 7.42-4.285 7.42 4.285-7.42 4.283zM644.3 603.117l-7.42-4.281 7.42-4.287 7.418 4.287-7.418 4.281zM656.796 610.332l-7.42-4.283 7.42-4.284 7.418 4.284-7.418 4.283zM669.292 617.547l-7.42-4.284 7.42-4.283 7.418 4.283-7.418 4.284zM681.788 624.763l-7.42-4.285 7.42-4.285 7.418 4.285-7.418 4.285zM694.284 631.976l-7.42-4.283 7.42-4.283 7.418 4.283-7.418 4.283zM706.78 639.191l-7.42-4.283 7.42-4.285 7.418 4.285-7.418 4.283zM719.276 646.404l-7.419-4.281 7.419-4.285 7.418 4.285-7.418 4.281zM731.771 653.621l-7.418-4.283 7.418-4.286 7.42 4.286-7.42 4.283zM744.269 660.836l-7.42-4.285 7.42-4.284 7.418 4.284-7.418 4.285zM600.235 592.103l-13.34-7.699 7.418-4.285 13.342 7.703-7.42 4.281zM593.333 601.953l-18.414-10.635 7.42-4.285 18.414 10.635-7.42 4.285zM585.915 612.097l-23.492-13.562 7.42-4.287 23.49 13.566-7.418 4.283zM560.64 614.967l-13.338-7.702 10.045-5.8 13.339 7.703-10.046 5.799zM579.056 625.599l-13.338-7.703 10.043-5.799 13.339 7.702-10.044 5.8zM597.472 636.23l-13.34-7.701 10.045-5.801 13.34 7.703-10.045 5.799zM660.968 672.89l-13.338-7.701 10.045-5.801 13.338 7.704-10.045 5.798zM692.177 690.908l-26.164-15.104 10.045-5.8 26.164 15.105-10.045 5.799zM642.583 662.275l-40.035-23.113 10.047-5.801 40.035 23.115-10.047 5.799zM616.227 601.34l-10.916-6.303 7.418-4.285 10.918 6.304-7.42 4.284zM609.327 611.185l-10.916-6.302 7.42-4.284 10.916 6.303-7.42 4.283zM602.249 621.134l-10.916-6.304 7.42-4.283 10.916 6.302-7.42 4.285zM618.243 630.367l-10.918-6.303 7.42-4.283 10.918 6.303-7.42 4.283zM634.235 639.599l-10.916-6.3 7.418-4.286 10.916 6.305-7.418 4.281zM650.228 648.834l-10.916-6.303 7.42-4.283 10.916 6.303-7.42 4.283zM666.22 658.066l-10.916-6.301 7.42-4.283 10.916 6.301-7.42 4.283zM682.214 667.301l-10.916-6.303 7.42-4.283 10.916 6.302-7.42 4.284zM707.642 681.98l-20.352-11.748 7.42-4.283 20.35 11.748-7.418 4.283zM625.319 620.42l-10.916-6.303 7.42-4.283 10.916 6.3-7.42 4.286zM641.314 629.652l-10.919-6.303 7.421-4.283 10.916 6.303-7.418 4.283zM657.306 638.886l-10.916-6.302 7.42-4.285 10.916 6.302-7.42 4.285zM673.298 648.119l-10.916-6.301 7.42-4.285 10.916 6.303-7.42 4.283zM689.292 657.353l-10.916-6.302 7.42-4.286 10.916 6.305-7.42 4.283zM719.794 674.963l-25.426-14.68 7.418-4.283 25.428 14.679-7.42 4.284zM632.222 610.574l-10.918-6.305 7.42-4.281 10.916 6.301-7.418 4.285zM648.212 619.806l-10.916-6.302 7.42-4.284 10.916 6.303-7.42 4.283zM664.206 629.041l-10.916-6.303 7.42-4.285 10.916 6.303-7.42 4.285zM680.198 638.275l-10.916-6.305 7.42-4.283 10.916 6.303-7.42 4.285zM696.192 647.506l-10.917-6.301 7.419-4.283 10.916 6.3-7.418 4.284zM712.185 656.74l-10.916-6.301 7.418-4.285 10.918 6.303-7.42 4.283zM731.773 668.049l-14.512-8.377 7.42-4.284 14.51 8.377-7.418 4.284z"/><path style="mix-blend-mode:multiply" fill="url(#e)" d="M787.057 952.793H686.16l-42.918 44.739h143.815v-44.739z"/><path fill="url(#f)" d="M627.186 954.944c-7.987 7.987-8.205 29.688-2.937 34.599 5.268 4.91 16.442 12.204 29.106 4.893 12.664-7.312 47.331-26.541 49.542-32.237 5.192-13.372-6.269-24.292-21.981-19.632-18.09 5.366-21.828 6.901-30.316 6.587-8.487-.315-17.567-.056-23.414 5.79Z"/><path d="M620.8 978.993c.356 4.754 1.535 8.766 3.45 10.55 5.267 4.91 16.44 12.204 29.104 4.893 12.665-7.312 47.332-26.541 49.543-32.237a18.815 18.815 0 0 0 .924-3.31c-27.801 17.48-39.638 10.478-48.287 12.994-8.653 2.517-6.923 14.265-16.205 17.568-9.269 3.3-16.496-6.055-18.529-10.458Z" style="mix-blend-mode:multiply" fill="url(#g)"/><path fill="url(#h)" d="M646.851 967.7a17.618 17.618 0 0 1-22.174-11.239c-1.69-5.127-22.727-107.39-29.034-134.277-1.79-7.63-2.553-16.926 11.943-21.572 9.267-2.971 19.48 2.277 21.811 11.446 6.687 26.304 28.336 132.11 28.747 133.363a17.619 17.619 0 0 1-11.213 22.253Z"/><path style="mix-blend-mode:multiply" fill="url(#O)" d="M689.931 891.735H589.034l-42.918 44.739h143.815v-44.739z"/><path fill="url(#P)" d="M530.06 893.886c-7.987 7.987-8.205 29.689-2.937 34.6 5.268 4.91 16.441 12.204 29.105 4.892 12.665-7.311 47.332-26.541 49.543-32.236 5.191-13.373-6.27-24.292-21.982-19.632-18.09 5.366-21.827 6.9-30.315 6.586-8.487-.315-17.567-.056-23.414 5.79Z"/><path d="M523.674 917.935c.356 4.754 1.535 8.766 3.45 10.55 5.267 4.911 16.44 12.205 29.104 4.893 12.665-7.311 47.332-26.541 49.543-32.236a18.811 18.811 0 0 0 .924-3.311c-27.801 17.48-39.638 10.478-48.287 12.995-8.653 2.516-6.922 14.264-16.205 17.568-9.269 3.3-16.496-6.056-18.529-10.459Z" style="mix-blend-mode:multiply" fill="url(#Q)"/><path fill="url(#R)" d="M546.71 907.356a17.618 17.618 0 0 1-21.898-11.77c-1.565-5.167-20.13-107.907-25.788-134.938-1.605-7.672-2.144-16.983 12.46-21.279 9.336-2.746 19.42 2.746 21.53 11.97 6.05 26.456 25.14 132.755 25.522 134.016a17.62 17.62 0 0 1-11.747 21.977Z"/><path fill="url(#i)" d="M429.64 1157.658h122.396v16.676H429.64z"/><path fill="url(#S)" d="M587.438 1066.552h122.398v16.676H587.438z"/><path fill="url(#T)" d="M292.403 1078.424H414.8v16.676H292.403z"/><path fill="url(#U)" d="M450.202 987.318h122.397v16.676H450.202z"/><path fill="#5652ca" d="m462.763 996.742-12.561 7.252-22.842-165.17 12.561-7.252 22.842 165.17z"/><path fill="#807df9" d="m450.202 1003.994-12.56-7.252-22.842-165.17 12.56 7.252 22.842 165.17z"/><path fill="#5652cc" d="m429.64 1174.334 12.562-7.252 22.84-191.545-12.561 7.252-22.841 191.545z"/><path fill="#807dfb" d="m417.079 1167.082 12.561 7.252 22.841-191.545-12.56-7.252-22.842 191.545z"/><path fill="#5652cc" d="m600.001 1075.976-12.563 7.252-22.839-165.17 12.56-7.252 22.842 165.17z"/><path fill="#807dfb" d="m587.438 1083.228-12.56-7.252-22.842-165.17 12.563 7.252 22.839 165.17zM279.841 1087.847l12.562 7.252 22.84-191.545-12.56-7.252-22.842 191.545z"/><path fill="#5652cc" d="m292.403 1095.099 12.561-7.252 22.842-191.545-12.563 7.252-22.84 191.545z"/><path fill="url(#V)" d="M591.82 914.232c10.171-5.873 10.171-15.482.001-21.355l-133.406-77.022c-10.172-5.873-26.816-5.873-36.988 0l-133.405 77.022c-10.172 5.873-10.172 15.482 0 21.355l133.405 77.022c10.172 5.873 26.816 5.873 36.988 0Z"/><path fill="url(#j)" d="M581.58 598.724a98.292 98.292 0 0 0-10.65-5.406c-6.892-3.281-17.884-.652-20.933 1.467-3.05 2.119-21.994 13.75-25.598 21.258 0 0-7.107 3.677-9.877 5.1l10.407 15.911s9.129-4.847 11.275-4.71a32.087 32.087 0 0 0 11.451-.954v.004c10.153-2.595 22.133-10.701 25.576-13.547-5.058-4.572-10.66.495-14.455 2.52a19.253 19.253 0 0 1 2.76-3.658c6.16-6.186 7.572-8.356 14.467-8.356 6.896 0 12.16-5.496 5.576-9.629Z"/><path fill="url(#W)" d="M616.585 657.365c2.77-1.424 7.29-3.787 7.29-3.787.075-1.61 5.72-19.504 20.97-23.99 3.137 4.754-2.258 8.609-6.662 13.058 5.293-4.234 12.185-8.474 15.234-10.594 3.05-2.12 14.041-4.748 20.934-1.466a98.559 98.559 0 0 1 10.648 5.404c6.584 4.135 1.32 9.629-5.574 9.629-6.897 0-8.309 2.172-14.469 8.355-6.16 6.186-11.603 19.928-32.002 18.625-2.146-.136-4.605 1.723-4.605 1.723Z"/><path fill="url(#l)" d="M384.417 823.034c-5.565-11.178-5.076-23.123 13.728-32.868 45.164-23.408 105.966-59.186 122.098-54.348 16.35 4.902 11.221 31.957 1.021 36.768-6.101 2.516-95.697 48.982-105.759 54.528-6.836 3.767-25.09 7.968-31.088-4.08Z"/><path fill="#fff" d="M501.185 820.47c.387 26.731-3.286 42.41-36.598 54.182-24.894 8.797-70.295-17.341-82.16-41.086-5.884-11.777-6.897-25.648-6.775-31.652 7.828-76.724 124.844-29.102 125.533 18.556Z"/><path d="M494.361 800.418c4.03 7.774 3.592 22.334-10.228 29.804-37.257 20.137-76.726-1.124-73.317 9.888 5.874 18.972 14.272 28.222 23.346 32.79 11.094 3.629 21.95 4.747 30.425 1.752 33.312-11.771 36.985-27.45 36.598-54.182-.099-6.81-2.633-13.607-6.824-20.052Z" style="mix-blend-mode:multiply" fill="url(#k)"/><path d="M458.904 771.258h-30.452l22.826 39.996h48.354c-4.966-15.814-21.376-30.697-40.728-39.996Z" style="mix-blend-mode:multiply" fill="url(#X)"/><path fill="#423eaf" d="M474.172 757.669c.013 3.588-1.835 6.768-5.791 9.052-11.016 6.36-33.946 3.432-51.216-6.538-10.673-6.162-16.67-13.569-17.107-19.832v39.804l.02.004c-.441 6.536 5.607 14.597 17.087 21.224 17.27 9.972 40.2 12.899 51.216 6.539 3.781-2.183 5.636-5.182 5.775-8.578.024-.602.016-41.675.016-41.675Z"/><path fill="#362e94" d="m474.157 791.114-.001.12c-.139 3.397-1.994 6.396-5.775 8.579-11.016 6.36-33.946 3.433-51.216-6.538-11.48-6.628-17.528-14.69-17.087-21.225l-.02-.004v3.834l.02.005c-.441 6.534 5.607 14.597 17.087 21.224 17.27 9.971 40.2 12.898 51.216 6.538 3.781-2.183 5.636-5.182 5.775-8.578.004-.11.008-1.61.01-3.955Z"/><path fill="#362e94" d="m474.157 782.886-.001.12c-.139 3.397-1.994 6.396-5.775 8.579-11.016 6.36-33.946 3.433-51.216-6.538-11.48-6.627-17.528-14.69-17.087-21.225l-.02-.004v3.834l.02.005c-.441 6.535 5.607 14.596 17.087 21.224 17.27 9.97 40.2 12.898 51.216 6.538 3.781-2.183 5.636-5.182 5.775-8.577.004-.112.008-1.61.01-3.956Z"/><path fill="#362e94" d="m474.157 774.657-.001.122c-.139 3.396-1.994 6.395-5.775 8.578-11.016 6.36-33.946 3.432-51.216-6.539-11.48-6.627-17.528-14.688-17.087-21.224l-.02-.004v3.834l.02.005c-.441 6.535 5.607 14.597 17.087 21.224 17.27 9.971 40.2 12.898 51.216 6.538 3.781-2.182 5.636-5.182 5.775-8.578.004-.11.008-1.61.01-3.956Z"/><path fill="#362e94" d="m474.157 766.43-.001.121c-.139 3.395-1.994 6.395-5.775 8.578-11.016 6.36-33.946 3.433-51.216-6.538-11.48-6.628-17.528-14.69-17.087-21.225l-.02-.004v3.834l.02.005c-.441 6.535 5.607 14.597 17.087 21.224 17.27 9.971 40.2 12.898 51.216 6.539 3.781-2.184 5.636-5.183 5.775-8.578.004-.112.008-1.61.01-3.956Z"/><path fill="#362e94" d="m474.157 758.202-.001.121c-.139 3.396-1.994 6.395-5.775 8.578-11.016 6.36-33.946 3.433-51.216-6.539-11.48-6.627-17.528-14.688-17.087-21.223l-.02-.005v3.834l.02.005c-.441 6.535 5.607 14.597 17.087 21.224 17.27 9.971 40.2 12.899 51.216 6.539 3.781-2.184 5.636-5.183 5.775-8.579.004-.11.008-1.61.01-3.955Z"/><path fill="#fff" d="M529.356 624.576c.49 33.91 2.415 141.446-39.844 156.379-31.58 11.16-92.9-25.17-104.227-52.122-15.054-35.823-19.722-92.11-19.567-127.856 9.93-97.332 162.763-36.86 163.638 23.599Z"/><path d="M501.439 602.699c-36.69 7.463-39.017 105.888-37.975 137.866 1.043 31.98-14.886 33.469-39.957 25.04l.017.018c22.13 13.189 48.575 21.485 65.988 15.332 42.26-14.933 40.335-122.469 39.844-156.38a43.905 43.905 0 0 0-4.035-16.693c-3.22-4.604-13.252-7.345-23.882-5.183Z" style="mix-blend-mode:multiply" fill="url(#Y)"/><path fill="url(#Z)" d="M505.12 581.978a135.17 135.17 0 0 0-35.726-21.961l-20.187 23.853c12.9 2.318 22.025 2.401 28.948 0 6.922-2.402 14.69-4.231 20.557-2.402a23.158 23.158 0 0 0 6.409.51Z"/><path fill="url(#aa)" d="M459.503 525.896c.012 3.305-18.363.883-34.402-8.068-3.733-2.084-6.651-2.681-9.83-5.675L403.318 555.2l.02.004c-.407 6.019 5.164 13.444 15.736 19.548 15.906 9.184 37.026 11.88 47.172 6.022 3.483-2.01 5.191-4.773 5.319-7.901.022-.554-12.062-46.976-12.062-46.976Z"/><path fill="url(#ab)" d="M403.14 493.288c0-24.337 17.766-54.445 44.063-54.445 24.336 0 44.065 30.108 44.065 54.445 0 24.336-.051 60.902-12.59 59.561-7.71-.824-39.97-27.888-56.017-33.237-14.69-4.897-19.522-9.742-19.522-26.324Z"/><path d="M422.66 519.612c16.048 5.35 48.309 32.413 56.018 33.237 9.88 1.056 12-21.42 12.456-42.906-3.085-13.518-6.651-32.342-26.504-32.41-19.81-.069-20.158 41.86-46.556 34.62-14.42-3.954-14.216-9.75-14.757-15.414l-.032.063c.716 13.696 5.82 18.292 19.376 22.81Z" style="mix-blend-mode:multiply" fill="url(#ac)"/><path fill="url(#ad)" d="M470.144 865.948c-3.972-11.838-1.842-23.6 18.124-30.664 47.958-16.965 113.108-44.029 128.42-37.016 15.518 7.108 6.713 33.198-4.053 36.56-6.389 1.65-101.53 35.335-112.26 39.442-7.29 2.791-25.95 4.438-30.23-8.322Z"/><path fill="url(#ae)" d="M490.895 487.339c-6.542 0-9.1 1.643-7.37 10.164 1.297 6.38 4.692 12.187 7.58 13.78.152-6.238.163-12.437.163-17.995a49.137 49.137 0 0 0-.373-5.95Z"/><path fill="url(#af)" d="M546.548 723.168c-31.332 0-56.368-41.54-63.549-91.438-1.861-12.934.5-26.485 15.202-31.13 12.593-3.98 23.117 7.87 24.978 18.196 6.846 37.978 17.41 60.704 23.978 65.805 10.485-3.908 41.434-18.062 67.322-28.601 11.184-4.553 16.729-3.118 20.909 4.322 3.767 6.706 4.176 12.144-4.916 18.44-40.842 28.277-70.305 43.011-80.309 44.193a30.986 30.986 0 0 1-3.615.213Z"/><path d="M547.655 631.394v-.004a32.087 32.087 0 0 1-11.45.953c-1.535-.097-9.68 3.887 2.74 3.368 4.965-.208 8.631-.084 11.452-.953v.004c10.152-2.596 22.132-10.701 25.576-13.547a6.561 6.561 0 0 0-4.73-1.847c-4.862 3.54-14.887 9.802-23.588 12.026Zm36.841-29.176c.697 3.196-3.45 6.135-8.493 6.135-6.895 0-8.307 2.17-14.467 8.356a19.253 19.253 0 0 0-2.76 3.658c2.592-1.383 6.027-4.181 9.556-4.362 3.223-3.098 5.33-4.284 10.412-4.284 6.828 0 12.037-5.385 5.752-9.503Z" style="mix-blend-mode:multiply" fill="url(#ag)"/><path d="M687.917 639.484c.697 3.196-3.45 6.135-8.492 6.135-6.897 0-8.309 2.172-14.469 8.355-5.775 5.8-10.92 18.24-28.35 18.699a19.89 19.89 0 0 1-6.134 6.088c-40.842 28.278-70.305 43.012-80.309 44.194a30.992 30.992 0 0 1-3.615.213c-12.688 0-24.342-6.815-34.197-18.236 10.406 13.432 23.052 21.603 36.938 21.603a30.986 30.986 0 0 0 3.616-.213c10.003-1.181 39.466-15.916 80.308-44.193a19.887 19.887 0 0 0 6.134-6.089c17.43-.458 22.575-12.899 28.35-18.698 6.16-6.184 7.573-8.356 14.47-8.356 6.825 0 12.034-5.382 5.75-9.502Z" style="mix-blend-mode:multiply" fill="url(#ah)"/><path fill="url(#ai)" d="M279.84 903.554c-3.394-26.144-19.605-145.582-22.35-165.814-3.614-26.625 24.693-45.512 65.515-22.402s83.197 52.816 124.431 113.205c21.227 31.09 72.366 20.355 93.938 6.703 30.21-19.115 58.074 2.888 58.074 68.308-16.644 11.967-130.476 74.905-144.922 81.28-14.445 6.375-26.224 3.754-57.472-16.252-31.248-20.004-117.213-65.028-117.213-65.028Z"/><path d="M1124.616 708.728a5.07 5.07 0 0 0-1.168-.68L991.75 631.96c-1.812-1.189-5.994-1.94-12.097-1.94-11.682 0-25.89 2.735-31.73 6.105l-80.875 46.694 132.583 76.55h42.305l80.873-46.692c2.607-1.507 3.095-2.883 1.807-3.948Z" style="mix-blend-mode:multiply" fill="url(#aj)"/><path fill="#6a6ae0" d="m947.921 633.877 132.583 76.546-80.873 46.691-132.583-76.548 80.873-46.689z"/><path fill="#ced2f4" d="M1075.87 687.829s-72.363 41.776-76.078 43.922v19.92c3.715-2.147 76.076-43.923 76.076-43.923 4.756-2.748 8.625-9.448 8.625-14.942 0-5.489-3.87-7.722-8.622-4.977Z"/><path fill="url(#ak)" d="M1083.826 689.357a8.225 8.225 0 0 1 .667 3.449c0 5.494-3.87 12.194-8.625 14.942l4.633 2.675c4.76-2.748 8.625-9.45 8.625-14.941 0-4.13-2.19-6.417-5.3-6.125Z"/><path fill="#f5f5fa" d="m876.478 660.558 123.314 71.193v19.919l-123.316-71.195.002-19.917z"/><path fill="#6a6ae0" d="m947.921 611.706 132.583 76.543-80.873 46.693-132.583-76.546 80.873-46.69z"/><path fill="#5555c4" d="m952.553 614.38 123.318 71.197-76.24 44.014-123.316-71.195 76.238-44.016zM867.048 658.396l132.583 76.546v2.254l-132.583-76.551v-2.249zM867.048 680.566l132.583 76.548v2.254l-132.583-76.55v-2.252z"/><path fill="url(#al)" d="m1088.182 687.634-132.583-76.545c-1.946-1.226-4.66-1.127-7.676.615l132.581 76.545Z"/><path fill="#34318d" d="M1091.076 694.355c.002-6.743-4.732-9.478-10.572-6.106l-80.873 46.693v2.254l80.873-46.694c4.756-2.745 8.622-.511 8.622 4.98 0 5.491-3.866 12.193-8.625 14.94l-80.87 46.69v2.256l80.873-46.694c5.84-3.373 10.572-11.574 10.572-18.319Z"/><path fill="#fff" d="m982.245 656.671 20.373 11.762-37.312 21.545-20.375-11.766 37.314-21.541zM1006.864 670.882l4.063 2.347L992.271 684l-4.063-2.346 18.656-10.772z"/><path fill="#ced3f8" d="m995.801 712.004-132.582-76.545 81.851-47.258 132.584 76.546-81.853 47.257z"/><path fill="#dfe4f4" d="M1067.901 648.194v16.831l-76.736 44.304.002-16.832 76.734-44.303z"/><path fill="#fff" d="m993.85 694.046-132.583-76.545 83.803-48.382 132.584 76.545-83.804 48.382z"/><path fill="#abb2da" d="m993.85 715.384 83.804-48.383v-2.254l-81.853 47.257v-16.831l81.853-47.256v-2.253l-83.804 48.382v21.338z"/><path fill="#fff" d="m962.429 643.242-13.163-7.6 29.177-16.846 13.163 7.599-29.177 16.847z"/><path fill="#ced3f8" d="m993.85 715.381-132.585-76.547.002-21.333 132.583 76.545v21.335z"/><path fill="#f5f5fa" d="m886.829 648.779-4.551-2.63v-11.702l4.551 2.628v11.704zM897.559 654.973l-4.551-2.627v-11.704l4.551 2.626v11.705z"/><path d="M993.85 715.38h39.66l46.994-27.131c2.888-1.665 5.501-1.835 7.407-.773l-22.863-13.2Z" style="mix-blend-mode:multiply" fill="url(#am)"/><path style="mix-blend-mode:multiply" fill="url(#an)" d="M1021.964 613.514h-30.812l-18.505 14.251 1.304 14.25h97.38l-49.367-28.501z"/><path fill="#4141aa" d="M937.825 622.114c9.866 9.865 31.123 18.651 36.126 19.901 5-1.25 26.254-10.036 36.12-19.901a644.781 644.781 0 0 0-72.246 0Z"/><path fill="url(#ao)" d="M933.231 581.497v29.76c0 6.014 3.977 12.032 11.924 16.62 15.902 9.18 41.682 9.179 57.581 0 7.953-4.588 11.928-10.606 11.928-16.62v-29.76Z"/><path fill="url(#ap)" d="M1017.103 596.647a2.542 2.542 0 0 0-1.285-2.042 16.172 16.172 0 0 0 1.346-6.41 2.66 2.66 0 0 0-2.431-2.363c-1.217 0-.002 2.364-.002 2.364h-.567c0 5.871-4.066 11.453-11.46 15.724-15.84 9.14-41.614 9.14-57.452 0-7.39-4.268-11.458-9.849-11.458-15.724h-.627s1.214-2.364-.005-2.364a2.55 2.55 0 0 0-2.372 2.364 16.13 16.13 0 0 0 1.34 6.382 2.556 2.556 0 0 0-1.34 2.07 16.115 16.115 0 0 0 1.339 6.374 2.571 2.571 0 0 0-1.34 2.073c0 6.989 4.603 13.492 12.96 18.319 16.669 9.62 43.786 9.62 60.456 0 8.358-4.827 12.96-11.334 12.96-18.32a2.773 2.773 0 0 0-1.347-2.04 15.106 15.106 0 0 0 1.285-6.407Zm-14.4 24.169c-15.839 9.14-41.613 9.14-57.451 0-6.94-4.007-10.95-9.174-11.412-14.652a29.398 29.398 0 0 0 9.91 8.803c16.668 9.622 43.785 9.622 60.455 0a29.39 29.39 0 0 0 9.912-8.802c-.464 5.473-4.474 10.644-11.413 14.65Zm0-8.451c-15.839 9.148-41.613 9.148-57.451 0-6.94-4.006-10.95-9.173-11.412-14.652a29.376 29.376 0 0 0 9.91 8.805c16.668 9.62 43.785 9.62 60.455 0a29.375 29.375 0 0 0 9.912-8.805c-.464 5.48-4.47 10.646-11.413 14.652Z"/><path fill="url(#aq)" d="M1046.084 510.624a72.136 72.136 0 1 0-122.46 51.658c5.478 5.5 6.836 15.442 6.836 18.233 0 6.424 4.249 12.852 12.738 17.755 16.985 9.806 44.52 9.801 61.498 0 8.495-4.903 12.739-11.331 12.739-17.755 0-2.79 1.356-12.734 6.888-18.261a71.948 71.948 0 0 0 21.76-51.63Z"/><path d="M943.198 562.762c16.985-9.807 44.518-9.807 61.498 0 16.984 9.807 16.984 25.7 0 35.508-16.978 9.801-44.513 9.806-61.498 0-16.982-9.807-16.982-25.706 0-35.508Z" style="mix-blend-mode:multiply" fill="url(#ar)"/><path d="M1012.78 569.24a18.468 18.468 0 0 1 4.249 8.035l.65.376a31.467 31.467 0 0 1 1.05-4.978Z" style="mix-blend-mode:multiply" fill="url(#as)"/><path fill="#fff" d="M916.38 515.641a5.017 5.017 0 0 1-5.018-5.016 62.662 62.662 0 0 1 62.588-62.593 5.017 5.017 0 1 1 0 10.033 52.615 52.615 0 0 0-52.552 52.56 5.017 5.017 0 0 1-5.018 5.016Z"/><path d="M990.068 502.067a2.8 2.8 0 0 0-2.897.022c-1.993 1.15-3.47 4.907-4.427 9.68-.643-1.911-1.49-3.35-2.58-3.98a2.809 2.809 0 0 0-2.9.018c-1.989 1.151-3.47 4.907-4.426 9.678-.644-1.905-1.488-3.352-2.575-3.978a2.806 2.806 0 0 0-2.904.02c-1.987 1.149-3.467 4.904-4.425 9.68-.646-1.912-1.487-3.352-2.58-3.984a2.798 2.798 0 0 0-2.895.022c-3.745 2.16-5.705 13.507-5.705 23.6 0 10.276 2.449 13.313 4.815 16.246 2.503 3.104 5.088 6.312 5.088 20.025a1.501 1.501 0 0 0 3.002 0c0-14.771-3.055-18.564-5.75-21.906-2.23-2.763-4.156-5.148-4.156-14.364 0-11.438 2.418-19.87 4.17-20.974.969.643 2.735 5.7 2.734 15.257a1.501 1.501 0 0 0 3.002 0c0-11.437 2.416-19.874 4.167-20.976.968.645 2.737 5.701 2.737 15.255a1.501 1.501 0 0 0 3.003 0c0-11.435 2.413-19.87 4.165-20.972.969.642 2.736 5.699 2.736 15.256a1.501 1.501 0 0 0 3.003 0c0-11.437 2.412-19.874 4.163-20.977.97.646 2.74 5.705 2.74 15.258 0 9.491-2.136 14.66-4.403 20.137-2.576 6.238-5.503 13.314-5.503 27.57a1.501 1.501 0 0 0 3.003 0c0-13.658 2.684-20.152 5.275-26.425 2.38-5.758 4.627-11.198 4.627-21.282 0-7.456-1.132-16.073-4.304-17.906Z" style="mix-blend-mode:screen" fill="url(#at)"/><path fill="#ffd03e" d="M972.523 426.025a2.508 2.508 0 0 1-2.508-2.509V386.44a2.508 2.508 0 1 1 5.015 0v37.076a2.508 2.508 0 0 1-2.507 2.51ZM1014.13 436.64a2.509 2.509 0 0 1-2.2-3.71l12.44-22.792a2.508 2.508 0 1 1 4.403 2.405l-12.44 22.79a2.506 2.506 0 0 1-2.203 1.307ZM930.917 436.64a2.506 2.506 0 0 1-2.203-1.306l-12.44-22.791a2.508 2.508 0 1 1 4.403-2.405l12.44 22.791a2.509 2.509 0 0 1-2.2 3.711Z"/><path d="M630.72 497.888c-7.823-4.52-17.743-7.07-27.929-7.665v-.14h-37.246v7.88c-17.653 10.342-17.629 26.998 0 37.395v8.01h37.246v-.12c10.284-.559 20.292-3.117 28.142-7.676 17.9-10.413 17.812-27.28-.213-37.684Z" style="mix-blend-mode:multiply" fill="url(#au)"/><path fill="url(#av)" d="M598.175 512.068c-17.9 10.396-47.02 10.396-65.047-.007-9.066-5.244-13.593-12.113-13.578-18.979l-.037 23.513c-.02 6.867 4.511 13.736 13.58 18.97 18.017 10.411 47.14 10.411 65.048.009a36.747 36.747 0 0 0 6.006-4.314v-23.474a36.745 36.745 0 0 1-5.972 4.282Z"/><path fill="#5652cc" d="M604.147 507.786v23.474c4.885-4.365 7.34-9.377 7.354-14.398l.04-23.508c-.015 5.036-2.483 10.058-7.394 14.432Z"/><path fill="#fff" d="M533.128 512.06c-18.02-10.405-18.115-27.272-.219-37.676 17.913-10.408 47.04-10.408 65.053 0 18.024 10.404 18.113 27.271.213 37.684-17.9 10.396-47.02 10.396-65.047-.007Z"/><path fill="#807dfb" d="m602.791 477.68-38.368 14.168 39.724 15.937c10.281-9.157 9.808-21.174-1.356-30.106Z"/><path fill="#362e94" d="M597.962 474.384a53.91 53.91 0 0 0-11.769-4.922l-21.77 22.386 38.368-14.169a38.53 38.53 0 0 0-4.83-3.295Z"/><path style="mix-blend-mode:multiply" fill="url(#aw)" d="m756.041 811.378-5.281-1.24-9.57 1.239-4.287 2.474 73.586 42.486 5.281 1.237 9.572-1.236 4.286-2.475-73.587-42.485z"/><path fill="url(#ax)" d="M729.177 804.775c-.015.008 7.726 9.076 7.726 9.076l4.287-11.051-9.932-1.444-.312-.045a1.347 1.347 0 0 0-.58.19 3.172 3.172 0 0 0-1.435 2.486 1.173 1.173 0 0 0 .246.788Z"/><path fill="url(#ay)" d="M730.946 801.31a1.347 1.347 0 0 0-.58.191 3.172 3.172 0 0 0-1.435 2.486 1.169 1.169 0 0 0 .246.788c-.015.008-3.652-4.252-3.652-4.252Z"/><path fill="#fcba06" d="m734.758 810.799 73.585 42.488 2.146-5.527-73.586-42.485-2.145 5.524z"/><path fill="#e19100" d="m736.903 813.851 73.586 42.486-2.146-3.05-73.585-42.488 2.145 3.052z"/><path fill="#ffd03e" d="m736.903 805.275 73.586 42.485 4.287-2.476L741.19 802.8l-4.287 2.475z"/><path fill="#b9bfe8" d="m814.776 853.86 2.145-5.525-2.145-3.051-4.287 2.476-2.146 5.527 2.146 3.05 4.287-2.477z"/><path fill="#231574" d="M814.05 849.99c0-.904-.635-1.27-1.418-.819a3.138 3.138 0 0 0-1.42 2.458c0 .905.636 1.27 1.42.82a3.132 3.132 0 0 0 1.417-2.46Z"/><g style="isolation:isolate"><path fill="url(#az)" d="M842.387 122.728c-9.239-5.335-17.61-5.83-23.657-2.315l-11.7 6.798c6.047-3.513 14.419-3.019 23.657 2.315 18.364 10.602 33.199 36.299 33.14 57.39-.03 10.482-3.732 17.857-9.696 21.324l11.698-6.797c5.965-3.469 9.668-10.844 9.698-21.326.06-21.092-14.775-46.79-33.14-57.389Z"/><path fill="#f6f6fb" d="M830.687 129.526c-18.356-10.598-33.294-2.093-33.356 18.999-.059 21.1 14.787 46.8 33.14 57.397 18.361 10.604 33.296 2.095 33.356-19.007.059-21.09-14.776-46.787-33.14-57.389Z"/><path fill="#6b67e9" d="M830.599 139.083c-3.294-1.902-5.974-.375-5.988 3.41a13.106 13.106 0 0 0 5.95 10.302c3.296 1.905 5.977.378 5.988-3.41a13.108 13.108 0 0 0-5.95-10.302Z"/></g><path fill="#6b67e9" d="M838.473 170.028v-5.634l-15.788-9.115v5.634l3.379 1.949v21.526l-3.379-1.951v5.635l15.788 9.116v-5.635l-3.377-1.948v-21.526l3.377 1.949z"/><path d="M841.145 660.639c-5.05-2.917-11.767-4.26-18.362-4.063h-10.341v1.692a27.392 27.392 0 0 0-5.471 2.371c-9.403 5.468-9.348 14.33.114 19.797a27.5 27.5 0 0 0 5.357 2.32v1.77h12.403a34.474 34.474 0 0 0 16.413-4.09c9.405-5.468 9.356-14.329-.113-19.797Z" style="mix-blend-mode:multiply" fill="url(#aA)"/><path fill="url(#aB)" d="M796.434 680.443c-4.763-2.75-7.146-6.36-7.134-9.965l.022-8.22c-.01 3.61 2.367 7.217 7.132 9.97 9.47 5.466 24.766 5.466 34.171.003 4.675-2.718 7.015-6.27 7.025-9.832l-.022 8.218c-.01 3.559-2.349 7.11-7.02 9.83-9.406 5.467-24.707 5.467-34.174-.004Z"/><path fill="#fff" d="M796.454 672.227c-9.467-5.464-9.518-14.328-.114-19.791 9.406-5.468 24.71-5.468 34.175 0 9.47 5.463 9.516 14.327.11 19.795-9.405 5.463-24.701 5.463-34.17-.004Z"/><path fill="#bbc0e6" d="m825.882 661.206-17.88.908.555-4.019h-4.941l-1.342 7.326 23.608-1.363v-2.852z"/><path fill="none" stroke="#dae0f5" stroke-linecap="round" stroke-linejoin="round" stroke-width="2" d="m139.525 145.938-72.583-41.903 72.583-41.908 72.584 41.908-72.584 41.903z"/><path fill="#dae0f5" d="M139.525 230.748a1.002 1.002 0 0 1-.5-.134l-72.584-41.902a1 1 0 0 1-.5-.867v-83.81a1 1 0 0 1 2 0v83.233l71.584 41.325 71.583-41.325v-83.233a1 1 0 1 1 2 0v83.81a1.002 1.002 0 0 1-.5.867l-72.583 41.902a1.002 1.002 0 0 1-.5.134Z"/><path fill="#dae0f5" d="M139.525 230.748a1 1 0 0 1-1-1v-83.81a1 1 0 0 1 2 0v83.81a1 1 0 0 1-1 1ZM133.997 62.127a5.528 5.528 0 1 1 5.528 5.529 5.527 5.527 0 0 1-5.528-5.529ZM61.418 104.035a5.526 5.526 0 1 1 5.524 5.528 5.527 5.527 0 0 1-5.524-5.528ZM61.418 187.845a5.526 5.526 0 1 1 5.524 5.528 5.527 5.527 0 0 1-5.524-5.528Z"/><path fill="#dae0f5" d="M133.997 229.748a5.528 5.528 0 1 1 5.528 5.528 5.527 5.527 0 0 1-5.528-5.528ZM133.997 145.938a5.528 5.528 0 1 1 5.528 5.528 5.527 5.527 0 0 1-5.528-5.528Z"/><circle cx="212.109" cy="104.035" r="5.528" fill="#dae0f5"/><circle cx="212.109" cy="187.845" r="5.528" fill="#dae0f5"/><path fill="none" stroke="#dae0f5" stroke-linecap="round" stroke-linejoin="round" stroke-width="2" d="m1236.334 495.864-50.729-29.289 50.729-29.289 50.728 29.289-50.728 29.289z"/><path fill="#dae0f5" d="M1236.333 555.441a.996.996 0 0 1-.5-.135l-50.728-29.288a1.002 1.002 0 0 1-.5-.866v-58.577a1 1 0 0 1 2 0v58l49.728 28.712 49.728-28.712v-58a1 1 0 1 1 2 0v58.577a1.002 1.002 0 0 1-.5.866l-50.728 29.288a.996.996 0 0 1-.5.135Z"/><path fill="#dae0f5" d="M1236.333 555.441a1 1 0 0 1-1-1v-58.577a1 1 0 0 1 2 0v58.577a1 1 0 0 1-1 1ZM1231.743 437.286a4.59 4.59 0 1 1 4.59 4.59 4.59 4.59 0 0 1-4.59-4.59ZM1181.015 466.575a4.59 4.59 0 1 1 4.59 4.59 4.59 4.59 0 0 1-4.59-4.59ZM1181.015 525.152a4.59 4.59 0 1 1 4.59 4.59 4.59 4.59 0 0 1-4.59-4.59Z"/><path fill="#dae0f5" d="M1231.745 554.442a4.589 4.589 0 1 1 4.589 4.59 4.59 4.59 0 0 1-4.589-4.59Z"/><circle cx="1236.334" cy="495.864" r="4.59" fill="#dae0f5" transform="rotate(-89.91 1236.334 495.864)"/><path fill="#dae0f5" d="M1282.474 466.575a4.59 4.59 0 1 1 4.588 4.59 4.59 4.59 0 0 1-4.588-4.59ZM1282.474 525.152a4.59 4.59 0 1 1 4.588 4.59 4.59 4.59 0 0 1-4.588-4.59Z"/></g></svg>